<svg id="visual" viewBox="0 0 1920 1080" width="1920" height="1080" xmlns="http://www.w3.org/2000/svg" xmlns:xlink="http://www.w3.org/1999/xlink" version="1.1"><rect x="0" y="0" width="1920" height="1080" fill="#252525"></rect><defs><linearGradient id="grad1_0" x1="43.8%" y1="0%" x2="100%" y2="100%"><stop offset="14.444444444444446%" stop-color="#252525" stop-opacity="1"></stop><stop offset="85.55555555555554%" stop-color="#252525" stop-opacity="1"></stop></linearGradient></defs><defs><linearGradient id="grad2_0" x1="0%" y1="0%" x2="56.3%" y2="100%"><stop offset="14.444444444444446%" stop-color="#252525" stop-opacity="1"></stop><stop offset="85.55555555555554%" stop-color="#252525" stop-opacity="1"></stop></linearGradient></defs><g transform="translate(1920, 0)"><path d="M0 594C-90.5 555.6 -181 517.2 -271.5 470.3C-362 423.3 -452.4 367.8 -498.8 288C-545.2 208.2 -547.6 104.1 -550 0L0 0Z" fill="#FBAE3C"></path></g><g transform="translate(0, 1080)"><path d="M0 -574C97.4 -557.6 194.9 -541.3 287.5 -498C380.1 -454.7 468 -384.5 514.4 -297C560.9 -209.5 565.9 -104.8 571 0L0 0Z" fill="#FBAE3C"></path></g></svg>